<?xml version="1.0" encoding="utf-8"?>
<!-- Generator: Adobe Illustrator 15.1.0, SVG Export Plug-In . SVG Version: 6.00 Build 0)  -->
<!DOCTYPE svg PUBLIC "-//W3C//DTD SVG 1.1//EN" "http://www.w3.org/Graphics/SVG/1.1/DTD/svg11.dtd">
<svg version="1.1" xmlns="http://www.w3.org/2000/svg" xmlns:xlink="http://www.w3.org/1999/xlink" x="0px" y="0px"
	 width="3425.315px" height="5332.934px" viewBox="0 0 3425.315 5332.934" enable-background="new 0 0 3425.315 5332.934"
	 xml:space="preserve">
<g id="Background">
</g>
<g id="Illustration">
	<path opacity="0.8" fill="#F4785E" d="M2548.374,3834.493C2003.073,4913,1202.664,5382.877,706.005,5062.758
		c-80.816-52.092-300.566-201.567-408.103-654.569c-207.013-872.067,112.976-2400.795,734.11-3370.761
		C1484.088,331.462,2037.747,11.98,2445.067,146.016c87.738,28.869,421.002,150.503,582.467,741.636
		c23.715,86.828,72.557,291.108,83.488,597.131C3136.692,2203.378,2903.75,3131.615,2548.374,3834.493z"/>
	<g>
		<g>
			<g>
				<path fill="#91B3FA" d="M1352.477,1795.474c-1.84-0.138-3.583-1.158-4.562-2.886c-3.708-6.545-7.619-13.072-11.621-19.402
					c-1.69-2.672-0.894-6.207,1.781-7.896c2.67-1.685,6.208-0.888,7.898,1.778c4.099,6.484,8.105,13.169,11.905,19.873
					c1.559,2.751,0.591,6.245-2.158,7.806C1354.696,1795.325,1353.57,1795.556,1352.477,1795.474z"/>
				<path fill="#91B3FA" d="M897.59,2513.94c-8.658-0.54-17.543-1.539-26.187-2.65c-3.138-0.408-5.351-3.275-4.946-6.413
					s3.292-5.271,6.411-4.948c8.438,1.095,17.188,1.938,25.572,2.593c6.214,0.464,12.572,0.804,18.909,1.019
					c3.236-0.122,5.636,2.753,5.529,5.913c-0.104,3.16-2.753,5.637-5.913,5.529C910.472,2514.768,903.956,2514.415,897.59,2513.94z
					 M990.013,2511.813c-2.676-0.2-4.921-2.268-5.253-5.028c-0.375-3.141,1.865-5.989,5.005-6.366
					c14.265-1.704,28.67-4.095,42.813-7.092l1.23-0.262c3.085-0.655,6.13,1.321,6.788,4.409c0.658,3.093-1.318,6.136-4.412,6.791
					l-1.231,0.261c-14.479,3.074-29.224,5.517-43.828,7.264C990.749,2511.834,990.375,2511.84,990.013,2511.813z M1104.907,2483.615
					c-2.146-0.16-4.112-1.529-4.928-3.676c-1.122-2.954,0.364-6.264,3.318-7.383c13.896-5.282,27.664-11.269,40.926-17.791
					c2.834-1.387,6.271-0.228,7.662,2.612c1.397,2.835,0.228,6.27-2.61,7.666c-13.582,6.679-27.683,12.808-41.91,18.211
					C1106.555,2483.564,1105.719,2483.676,1104.907,2483.615z M1209.44,2428.31c-1.653-0.123-3.242-0.96-4.268-2.427
					c-1.814-2.592-1.183-6.16,1.408-7.974c12.13-8.492,24.006-17.664,35.3-27.271c2.406-2.046,6.017-1.748,8.069,0.653
					c2.049,2.412,1.757,6.023-0.653,8.075c-11.563,9.834-23.727,19.226-36.151,27.925
					C1212.023,2428.076,1210.712,2428.404,1209.44,2428.31z M1297.249,2349.087c-1.185-0.088-2.351-0.545-3.317-1.38
					c-2.391-2.073-2.648-5.687-0.578-8.077c9.694-11.19,18.985-22.983,27.615-35.055c1.834-2.572,5.409-3.174,7.987-1.327
					c2.571,1.841,3.167,5.417,1.327,7.988c-8.833,12.359-18.346,24.432-28.276,35.891
					C1300.773,2348.549,1298.994,2349.218,1297.249,2349.087z M1363.214,2250.882c-0.731-0.055-1.464-0.249-2.159-0.604
					c-2.823-1.428-3.948-4.876-2.521-7.695c6.709-13.23,12.864-26.928,18.297-40.707c1.162-2.946,4.492-4.374,7.426-3.225
					c2.943,1.162,4.386,4.488,3.227,7.429c-5.564,14.106-11.867,28.135-18.734,41.684
					C1367.673,2249.887,1365.45,2251.049,1363.214,2250.882z M1403.377,2139.61c-0.281-0.021-0.564-0.064-0.848-0.125
					c-3.082-0.7-5.018-3.767-4.319-6.849c3.282-14.483,5.908-29.274,7.808-43.951c0.405-3.137,3.289-5.445,6.414-4.942
					c3.134,0.402,5.348,3.275,4.943,6.407c-1.946,15.038-4.636,30.183-7.994,45.014
					C1408.746,2137.965,1406.157,2139.818,1403.377,2139.61z M1415.065,2021.846c-2.9-0.217-5.217-2.599-5.293-5.564
					c-0.369-14.813-1.448-29.79-3.208-44.521c-0.374-3.14,1.866-5.988,5.005-6.365c3.152-0.382,5.992,1.871,6.366,5.005
					c1.801,15.088,2.907,30.426,3.286,45.593c0.078,3.162-2.419,5.79-5.583,5.868
					C1415.445,2021.862,1415.254,2021.86,1415.065,2021.846z M1397.686,1904.798c-2.345-0.175-4.431-1.788-5.093-4.187
					c-3.958-14.34-8.624-28.61-13.861-42.423c-1.119-2.954,0.366-6.259,3.324-7.383c2.948-1.109,6.264,0.36,7.386,3.326
					c5.361,14.137,10.135,28.751,14.189,43.435c0.84,3.045-0.948,6.197-3.997,7.041
					C1398.982,1904.789,1398.325,1904.846,1397.686,1904.798z"/>
				<path fill="#91B3FA" d="M799.637,2496.323c-0.391-0.029-0.783-0.099-1.176-0.211c-7.359-2.137-14.787-4.479-22.078-6.97
					c-2.993-1.019-4.592-4.272-3.57-7.269c1.02-2.997,4.278-4.626,7.267-3.567c7.124,2.433,14.382,4.724,21.573,6.808
					c3.035,0.883,4.783,4.058,3.903,7.092C804.79,2494.852,802.279,2496.521,799.637,2496.323z"/>
			</g>
			<g>
				<path fill="#91B3FA" d="M505.613,2255.45c-1.915-0.143-3.711-1.241-4.662-3.073c-3.512-6.771-6.933-13.771-10.173-20.813
					c-1.322-2.874-0.062-6.273,2.81-7.595c2.883-1.321,6.273-0.06,7.595,2.809c3.162,6.88,6.502,13.718,9.934,20.326
					c1.456,2.806,0.36,6.262-2.445,7.717C507.695,2255.331,506.637,2255.526,505.613,2255.45z"/>
				<path fill="#91B3FA" d="M470.441,2167.217c-2.319-0.174-4.393-1.758-5.074-4.124c-3.242-11.254-6.124-22.783-8.561-34.257
					c-0.67-3.162-1.307-6.315-1.915-9.467c-0.598-3.106,1.437-6.105,4.541-6.703c3.124-0.608,6.107,1.437,6.706,4.537
					c0.591,3.083,1.216,6.168,1.869,9.256c2.381,11.206,5.196,22.467,8.362,33.462c0.875,3.037-0.879,6.215-3.915,7.087
					C471.78,2167.204,471.102,2167.266,470.441,2167.217z M451.768,2052.31c-2.86-0.214-5.167-2.545-5.285-5.474
					c-0.607-14.926-0.52-30.058,0.26-44.976c0.163-3.155,2.856-5.583,6.014-5.421c3.041,0.199,5.587,2.856,5.418,6.017
					c-0.76,14.571-0.845,29.345-0.252,43.91c0.128,3.16-2.327,5.825-5.488,5.954C452.209,2052.331,451.988,2052.326,451.768,2052.31
					z M461.241,1936.263c-0.245-0.018-0.492-0.054-0.738-0.1c-3.098-0.641-5.089-3.671-4.451-6.769
					c3.015-14.627,6.753-29.29,11.11-43.57c0.921-3.026,4.14-4.72,7.146-3.806c3.023,0.921,4.73,4.121,3.807,7.146
					c-4.254,13.945-7.904,28.256-10.849,42.547C466.677,1934.561,464.068,1936.474,461.241,1936.263z M498.371,1825.937
					c-0.691-0.052-1.382-0.227-2.042-0.545c-2.854-1.362-4.062-4.777-2.7-7.63c6.44-13.48,13.58-26.813,21.223-39.637
					c1.616-2.716,5.125-3.62,7.849-1.987c2.716,1.615,3.606,5.13,1.984,7.846c-7.464,12.523-14.435,25.549-20.721,38.71
					C502.915,1824.886,500.654,1826.107,498.371,1825.937z M560.79,1727.69c-1.132-0.084-2.25-0.504-3.196-1.28
					c-2.446-2.005-2.805-5.609-0.8-8.056c9.451-11.539,19.563-22.782,30.055-33.426c2.217-2.245,5.842-2.277,8.095-0.058
					c2.254,2.221,2.277,5.845,0.057,8.101c-10.243,10.393-20.121,21.373-29.352,32.638
					C564.422,1727.11,562.588,1727.825,560.79,1727.69z M644.87,1647.227c-1.595-0.119-3.128-0.901-4.161-2.278
					c-1.894-2.536-1.376-6.125,1.156-8.016c11.937-8.932,24.45-17.417,37.194-25.224c2.699-1.648,6.222-0.803,7.874,1.895
					c1.652,2.691,0.806,6.216-1.891,7.87c-12.444,7.622-24.662,15.91-36.319,24.627
					C647.57,1646.963,646.199,1647.325,644.87,1647.227z M745.831,1589.372c-2.077-0.154-3.994-1.437-4.855-3.49
					c-1.227-2.912,0.14-6.27,3.055-7.498c13.756-5.791,27.952-11.006,42.193-15.51c3.023-0.958,6.231,0.723,7.183,3.737
					c0.956,3.016-0.717,6.231-3.732,7.185c-13.907,4.395-27.769,9.488-41.201,15.146
					C747.608,1589.303,746.706,1589.438,745.831,1589.372z M857.752,1557.443c-2.584-0.193-4.794-2.136-5.222-4.808
					c-0.499-3.122,1.629-6.058,4.753-6.554c14.75-2.357,29.786-4.056,44.681-5.052c3.129-0.192,5.882,2.177,6.095,5.333
					c0.21,3.155-2.178,5.881-5.333,6.095c-14.546,0.972-29.231,2.628-43.64,4.928
					C858.637,1557.459,858.19,1557.476,857.752,1557.443z M1018.149,1558.903c-0.195-0.015-0.393-0.04-0.589-0.072
					c-14.376-2.58-29.022-4.51-43.531-5.732c-3.151-0.269-5.49-3.034-5.224-6.188c0.265-3.131,3.003-5.461,6.131-5.228
					c0.017,0.001,0.036,0.003,0.056,0.004c14.862,1.256,29.864,3.233,44.586,5.868c3.111,0.563,5.183,3.538,4.625,6.647
					C1023.681,1557.119,1021.04,1559.119,1018.149,1558.903z"/>
				<path fill="#91B3FA" d="M1109.757,1584.917c-0.563-0.042-1.128-0.168-1.681-0.383c-6.954-2.751-14.095-5.376-21.219-7.803
					c-2.994-1.02-4.593-4.272-3.573-7.264c1.017-2.991,4.278-4.625,7.264-3.573c7.297,2.485,14.612,5.173,21.739,7.986
					c2.94,1.162,4.382,4.487,3.221,7.429C1114.56,1583.7,1112.191,1585.099,1109.757,1584.917z"/>
			</g>
			<g>
				<path fill="#91B3FA" d="M1111.606,1703.006c-2.024-1.409-4.722-1.379-6.714,0.075l-56.848,41.501
					c-30.548-12.134-63.251-19.483-97.029-21.27l-34.296-61.41c-1.203-2.155-3.64-3.308-6.069-2.873l-83.101,14.885
					c-2.429,0.437-4.314,2.365-4.695,4.8l-10.845,69.498c-31.058,13.402-59.177,31.645-83.613,53.629l-67.719-19.186
					c-2.374-0.673-4.912,0.234-6.321,2.259l-48.236,69.288c-1.411,2.026-1.38,4.723,0.075,6.714l41.5,56.848
					c-12.134,30.548-19.481,63.251-21.268,97.029l-61.412,34.297c-2.154,1.202-3.308,3.639-2.873,6.067l14.887,83.104
					c0.434,2.429,2.362,4.313,4.8,4.693l69.498,10.846c13.402,31.059,31.644,59.176,53.628,83.613l-19.187,67.719
					c-0.671,2.373,0.236,4.912,2.26,6.321l69.288,48.235c2.025,1.411,4.722,1.38,6.715-0.075l56.847-41.5
					c30.548,12.135,63.251,19.483,97.03,21.27l34.296,61.412c1.202,2.153,3.639,3.308,6.067,2.872l83.104-14.886
					c2.428-0.435,4.313-2.363,4.692-4.801l10.845-69.498c31.059-13.399,59.178-31.645,83.614-53.629l67.718,19.187
					c2.373,0.675,4.913-0.234,6.323-2.259l48.235-69.288c1.409-2.025,1.38-4.722-0.075-6.715l-41.499-56.847
					c12.133-30.548,19.482-63.251,21.268-97.03l61.413-34.296c2.152-1.202,3.307-3.64,2.871-6.067l-14.886-83.102
					c-0.435-2.429-2.363-4.313-4.799-4.695l-69.498-10.846c-13.401-31.058-31.646-59.175-53.627-83.612l19.185-67.719
					c0.673-2.374-0.234-4.912-2.26-6.322L1111.606,1703.006z"/>
				<g>
					<path fill="#BDD0FB" d="M928.351,2114.714c-7.904-0.59-15.77-2.321-23.393-5.194c-20.879-7.884-37.439-23.422-46.63-43.76
						c-9.193-20.338-9.918-43.037-2.038-63.917c7.88-20.879,23.418-37.437,43.756-46.633c20.335-9.19,43.037-9.907,63.917-2.035
						c20.88,7.883,37.443,23.422,46.633,43.76c9.194,20.337,9.916,43.037,2.036,63.916c-7.88,20.88-23.419,37.438-43.756,46.633
						C955.964,2113.321,942.098,2115.74,928.351,2114.714z M939.314,1965.115c-10.92-0.814-21.936,1.11-32.194,5.75
						c-33.35,15.07-48.216,54.469-33.143,87.821c7.302,16.154,20.459,28.501,37.048,34.763c16.59,6.263,34.622,5.69,50.776-1.62
						c16.157-7.299,28.501-20.456,34.763-37.044c6.259-16.588,5.685-34.623-1.617-50.777c-7.306-16.154-20.462-28.501-37.05-34.763
						C951.842,1966.96,945.592,1965.584,939.314,1965.115z"/>
				</g>
				<path fill="#BDD0FB" d="M917.386,2244.671c-37.407-2.792-73.53-15.536-105.124-37.534
					c-46.539-32.399-77.677-80.984-87.676-136.8c-3.213-17.935-4.119-35.927-2.797-53.629
					c2.794-37.401,15.543-73.516,37.533-105.104c32.399-46.54,80.984-77.68,136.805-87.681c1.458-0.256,2.917-0.506,4.378-0.733
					c12.005-1.896,24.144-2.767,36.195-2.602c1.504,0.017,3.006,0.056,4.505,0.106l-0.603,17.167
					c-13.779-0.484-27.725,0.516-41.448,2.973l0,0c-48.572,8.697-91.185,34.817-120.855,73.873c-1.669,2.196-3.297,4.437-4.88,6.711
					c-20.212,29.031-31.927,62.224-34.496,96.597c-1.218,16.275-0.383,32.81,2.569,49.289
					c9.189,51.304,37.808,95.961,80.584,125.735c42.773,29.785,94.588,41.122,145.892,31.927
					c89.411-16.016,153.747-90.923,160.202-177.592c1.193-15.991,0.413-32.381-2.541-48.878
					c-6.237-34.817-21.759-67.234-44.883-93.747l12.942-11.29c25.173,28.853,42.062,64.129,48.848,102.004
					c3.215,17.952,4.063,35.783,2.767,53.185c-7.026,94.301-77.026,175.8-174.308,193.23
					C953.069,2245.087,935.083,2245.992,917.386,2244.671z"/>
			</g>
		</g>
		<g>
			<g>
				<path fill="#91B3FA" d="M1974.857,1573.354c-2.569-0.191-4.982-1.678-6.235-4.146c-4.496-8.833-9.45-17.543-14.726-25.889
					c-2.251-3.558-1.19-8.265,2.372-10.516c3.557-2.243,8.268-1.183,10.519,2.368c5.526,8.738,10.718,17.869,15.426,27.121
					c1.911,3.757,0.415,8.341-3.339,10.256C1977.586,1573.199,1976.201,1573.454,1974.857,1573.354z"/>
				<path fill="#91B3FA" d="M1704.172,2051.835c-3.709-0.277-6.754-3.237-7.025-7.059c-0.303-4.203,2.86-7.851,7.06-8.148
					c14.758-1.057,29.654-3.163,44.282-6.274c5.163-1.093,10.264-2.311,15.309-3.629c4.076-1.076,8.242,1.362,9.313,5.437
					c1.07,4.075-1.365,8.239-5.439,9.309c-5.274,1.391-10.61,2.649-16.013,3.8c-15.311,3.255-30.91,5.466-46.362,6.567
					C1704.917,2051.868,1704.54,2051.862,1704.172,2051.835z M1857.067,2001.797c-2.328-0.174-4.547-1.407-5.886-3.53
					c-2.251-3.565-1.186-8.272,2.376-10.522c16.984-10.725,33.058-23.136,47.767-36.889c3.074-2.878,7.894-2.719,10.777,0.363
					c2.877,3.075,2.714,7.901-0.364,10.777c-15.407,14.402-32.24,27.4-50.041,38.646
					C1860.262,2001.55,1858.637,2001.914,1857.067,2001.797z M1967.952,1885.306c-1.088-0.081-2.173-0.394-3.187-0.97
					c-3.665-2.073-4.952-6.724-2.876-10.392c9.926-17.53,18.242-36.069,24.719-55.104c1.36-3.982,5.67-6.14,9.677-4.758
					c3.987,1.357,6.116,5.683,4.763,9.673c-6.785,19.931-15.496,39.344-25.891,57.704
					C1973.656,1884.11,1970.803,1885.519,1967.952,1885.306z M2010.672,1730.223c-4.014-0.3-7.136-3.691-7.049-7.762
					c0.424-20.062-1.063-40.325-4.411-60.228c-0.697-4.158,2.104-8.086,6.256-8.784c4.144-0.736,8.087,2.097,8.785,6.249
					c3.507,20.848,5.058,42.071,4.616,63.08c-0.086,4.212-3.572,7.551-7.781,7.468
					C2010.947,1730.243,2010.81,1730.233,2010.672,1730.223z"/>
				<path fill="#91B3FA" d="M1603.969,2043.533c-0.404-0.03-0.818-0.091-1.229-0.188c-10.089-2.434-20.163-5.366-29.944-8.716
					c-3.986-1.366-6.108-5.698-4.746-9.688c1.364-3.976,5.696-6.093,9.683-4.743c9.337,3.199,18.951,6,28.585,8.316
					c4.092,0.992,6.612,5.108,5.623,9.2C1611.053,2041.396,1607.629,2043.807,1603.969,2043.533z"/>
			</g>
			<g>
				<path fill="#91B3FA" d="M1388.493,1874.956c-2.55-0.19-4.943-1.653-6.209-4.093c-4.754-9.174-9.15-18.708-13.056-28.348
					c-1.583-3.896,0.298-8.348,4.199-9.931c3.9-1.583,8.348,0.302,9.93,4.206c3.73,9.193,7.926,18.295,12.466,27.049
					c1.939,3.736,0.479,8.339-3.257,10.277C1391.264,1874.797,1389.855,1875.058,1388.493,1874.956z"/>
				<path fill="#91B3FA" d="M1352.643,1751.4c-3.66-0.272-6.688-3.164-7.02-6.938c-1.581-18.023-1.703-36.304-0.357-54.332
					c0.196-2.636,0.423-5.271,0.686-7.894c0.417-4.188,4.255-6.992,8.34-6.837c4.191,0.418,7.249,4.155,6.833,8.344
					c-0.247,2.504-0.463,5.004-0.651,7.521c-1.285,17.213-1.169,34.663,0.339,51.867c0.371,4.194-2.732,7.891-6.93,8.264
					C1353.466,1751.433,1353.048,1751.431,1352.643,1751.4z M1377.254,1595.101c-0.806-0.061-1.613-0.247-2.398-0.583
					c-3.88-1.633-5.697-6.106-4.06-9.987c8.051-19.073,17.92-37.511,29.33-54.818c2.319-3.509,7.043-4.477,10.563-2.161
					c3.516,2.315,4.487,7.048,2.168,10.563c-10.899,16.517-20.323,34.137-28.01,52.349
					C1383.541,1593.554,1380.429,1595.337,1377.254,1595.101z M1471.803,1468.25c-2-0.149-3.943-1.086-5.319-2.757
					c-2.677-3.253-2.21-8.057,1.043-10.733c15.99-13.157,33.309-24.901,51.475-34.902c3.687-2.024,8.324-0.679,10.356,3.006
					c2.028,3.69,0.686,8.324-3.005,10.356c-17.341,9.546-33.873,20.752-49.139,33.314
					C1475.639,1467.834,1473.693,1468.391,1471.803,1468.25z M1614.583,1400.157c-3.311-0.247-6.193-2.65-6.898-6.063
					c-0.85-4.125,1.807-8.16,5.933-9.01c20.376-4.198,41.166-6.529,61.792-6.931c4.301-0.254,7.69,3.255,7.775,7.473
					c0.081,4.209-3.262,7.686-7.472,7.768c-19.7,0.388-39.556,2.617-59.023,6.629
					C1615.982,1400.172,1615.274,1400.208,1614.583,1400.157z"/>
				<path fill="#91B3FA" d="M1801.787,1416.244c-0.749-0.056-1.503-0.224-2.239-0.51c-9.199-3.637-18.676-6.883-28.166-9.637
					c-4.041-1.176-6.367-5.411-5.192-9.452c1.175-4.042,5.396-6.378,9.452-5.193c9.938,2.892,19.871,6.284,29.513,10.096
					c3.916,1.547,5.837,5.976,4.287,9.892C1808.184,1414.624,1805.024,1416.486,1801.787,1416.244z"/>
			</g>
			<g>
				<path fill="#91B3FA" d="M1803.324,1493.33c-1.386-0.965-3.229-0.944-4.593,0.05l-38.889,28.392
					c-20.898-8.301-43.271-13.328-66.378-14.55l-23.462-42.012c-0.823-1.474-2.49-2.262-4.152-1.965l-56.849,10.183
					c-1.661,0.299-2.951,1.618-3.211,3.283l-7.419,47.544c-21.248,9.169-40.483,21.648-57.2,36.687l-46.326-13.124
					c-1.624-0.46-3.36,0.16-4.325,1.546l-32.998,47.399c-0.964,1.386-0.944,3.23,0.052,4.593l28.389,38.889
					c-8.3,20.898-13.327,43.271-14.549,66.378l-42.012,23.462c-1.475,0.823-2.263,2.489-1.965,4.151l10.184,56.851
					c0.296,1.661,1.616,2.95,3.284,3.211l47.542,7.419c9.168,21.247,21.647,40.482,36.687,57.199l-13.125,46.326
					c-0.459,1.624,0.162,3.361,1.546,4.324l47.4,32.999c1.386,0.965,3.23,0.943,4.593-0.052l38.889-28.39
					c20.897,8.301,43.271,13.327,66.377,14.55l23.462,42.013c0.823,1.472,2.49,2.262,4.151,1.964l56.851-10.183
					c1.661-0.298,2.951-1.618,3.21-3.285l7.421-47.543c21.247-9.167,40.482-21.648,57.199-36.688l46.324,13.126
					c1.625,0.461,3.363-0.161,4.326-1.547l32.998-47.399c0.964-1.385,0.943-3.229-0.051-4.593l-28.391-38.889
					c8.301-20.897,13.328-43.271,14.55-66.379l42.013-23.461c1.472-0.822,2.262-2.49,1.964-4.15l-10.185-56.85
					c-0.297-1.662-1.615-2.951-3.283-3.212l-47.543-7.419c-9.168-21.247-21.648-40.481-36.687-57.2l13.125-46.326
					c0.46-1.623-0.161-3.359-1.546-4.325L1803.324,1493.33z"/>
				<g>
					<path fill="#BDD0FB" d="M1677.578,1780.487c-22.176-1.655-42.806-15.06-52.589-36.704
						c-14.246-31.513-0.196-68.739,31.313-82.992h0.004c31.512-14.239,68.744-0.185,82.985,31.32
						c14.246,31.513,0.195,68.738-31.314,82.992C1698.11,1779.557,1687.684,1781.242,1677.578,1780.487z M1665.73,1681.64
						c-20.022,9.048-28.948,32.701-19.9,52.724c9.053,20.015,32.698,28.947,52.724,19.892c20.018-9.049,28.944-32.702,19.896-52.724
						C1709.4,1681.524,1685.752,1672.584,1665.73,1681.64L1665.73,1681.64z"/>
				</g>
				<path fill="#BDD0FB" d="M1670.035,1869.428c-26.572-1.976-52.228-11.036-74.671-26.659
					c-33.058-23.017-55.175-57.521-62.276-97.169c-2.282-12.737-2.927-25.517-1.988-38.095c1.987-26.561,11.04-52.212,26.663-74.647
					c23.013-33.063,57.525-55.18,97.173-62.285c10.587-1.896,21.36-2.668,32.017-2.291l-0.812,22.862
					c-9.033-0.323-18.176,0.331-27.17,1.944c-32.172,5.768-60.352,23.182-79.828,49.22c-0.291,0.389-0.58,0.778-0.868,1.175
					c-0.591,0.807-1.169,1.615-1.743,2.438c-13.249,19.037-20.932,40.796-22.614,63.332c-0.8,10.662-0.25,21.508,1.684,32.307
					c6.027,33.641,24.79,62.914,52.833,82.435c28.046,19.536,62.012,26.984,95.643,20.931c33.636-6.023,62.909-24.782,82.433-52.826
					c13.25-19.036,20.934-40.796,22.615-63.332c0.799-10.662,0.25-21.508-1.684-32.308c-4.094-22.832-14.264-44.087-29.419-61.459
					l17.235-15.035c17.879,20.493,29.875,45.544,34.698,72.456c2.282,12.736,2.926,25.516,1.987,38.095
					c-1.986,26.56-11.04,52.212-26.662,74.647c-23.014,33.062-57.524,55.178-97.173,62.283
					C1695.382,1869.723,1682.603,1870.366,1670.035,1869.428z"/>
			</g>
		</g>
	</g>
	<g>
		<g>
			
				<linearGradient id="SVGID_1_" gradientUnits="userSpaceOnUse" x1="2279.9321" y1="2735.0713" x2="1903.271" y2="2145.5156" gradientTransform="matrix(0.9618 0.2737 -0.2737 0.9618 188.0742 851.3994)">
				<stop  offset="0" style="stop-color:#4F52FF"/>
				<stop  offset="1" style="stop-color:#4042E2"/>
			</linearGradient>
			<path fill="url(#SVGID_1_)" d="M1475.229,3103.785c-198.215-43.711-48.892-337.757-41.855-349.141l-355.221,124.734
				c0,0-31.723,170.947,189.326,328.263c55.927,39.799,112.51,56.958,165.859,60.46
				C1429.692,3199.484,1450.015,3144.626,1475.229,3103.785z"/>
			
				<linearGradient id="SVGID_2_" gradientUnits="userSpaceOnUse" x1="1843.5981" y1="1838.4775" x2="2377.7036" y2="1838.4775" gradientTransform="matrix(0.9618 0.2737 -0.2737 0.9618 188.0742 851.3994)">
				<stop  offset="0" style="stop-color:#FEBBBA"/>
				<stop  offset="1" style="stop-color:#FF928E"/>
			</linearGradient>
			<path fill="url(#SVGID_2_)" d="M1878.7,3117.317c-58.242-71.179-154.884-44.079-154.884-44.079
				c-115.167,35.868-194.687,42.433-248.586,30.547c-25.214,40.841-45.537,95.699-41.891,164.316
				c115.426,7.575,215.649-48.999,260.959-79.769c16.312-11.076,38.59-7.469,50.131,8.519c11.725,16.24,21.754,36.77,14.195,53.22
				c-14.908,32.441,21.399,54.435,27.869,42.974c6.473-11.462,10.797-89.099,10.797-89.099s56.217,101.609,78.301,140.788
				c22.08,39.183,69.401,19.751,69.401,19.751S1936.942,3188.497,1878.7,3117.317z"/>
			
				<linearGradient id="SVGID_3_" gradientUnits="userSpaceOnUse" x1="788.4346" y1="3636.0762" x2="-412.4651" y2="4509.4585" gradientTransform="matrix(0.9593 -0.2825 0.2825 0.9593 -380.4395 -902.2666)">
				<stop  offset="0" style="stop-color:#4F52FF"/>
				<stop  offset="1" style="stop-color:#4042E2"/>
			</linearGradient>
			<path fill="url(#SVGID_3_)" d="M684.572,2356.837c0,0,249.416-196.483,903.573,82.987c0,0,70.747,78.036,46.644,173.137
				c-24.102,95.101-364.78,624.229-363.135,861.538c0,0-246.145,168.602-589.399,41.771
				C682.255,3516.271,527.751,2899.961,684.572,2356.837z"/>
			<linearGradient id="SVGID_4_" gradientUnits="userSpaceOnUse" x1="906.3613" y1="2741.9639" x2="1334.9562" y2="2172.7363">
				<stop  offset="0" style="stop-color:#FEBBBA"/>
				<stop  offset="1" style="stop-color:#FF928E"/>
			</linearGradient>
			<path fill="url(#SVGID_4_)" d="M1213.796,2091.188l-89.5,209.734c-8.886,20.822-5.068,45.025,10.235,61.712
				c30.926,33.723,93.664,77.597,192.996,39.723c29.547-11.267,50.956-37.403,56.124-68.602l38.077-229.859L1213.796,2091.188z"/>
			
				<linearGradient id="SVGID_5_" gradientUnits="userSpaceOnUse" x1="616.2109" y1="3399.2822" x2="-584.6848" y2="4272.6616" gradientTransform="matrix(0.9593 -0.2825 0.2825 0.9593 -380.4395 -902.2666)">
				<stop  offset="0" style="stop-color:#4F52FF"/>
				<stop  offset="1" style="stop-color:#4042E2"/>
			</linearGradient>
			<path fill="url(#SVGID_5_)" d="M678.489,3144.003c-72.194-124.017,172.521-519.965,172.521-519.965l-166.438-267.201
				c0,0-577.191,689.37-281.044,1019.836c42.454,47.374,88.655,75.711,136.644,89.626
				C552.155,3293.66,623.268,3195.164,678.489,3144.003z"/>
			<linearGradient id="SVGID_6_" gradientUnits="userSpaceOnUse" x1="1255.4312" y1="2588.2461" x2="775.4965" y2="2865.0452">
				<stop  offset="0" style="stop-color:#09005D"/>
				<stop  offset="1" style="stop-color:#1A0F91"/>
			</linearGradient>
			<path fill="url(#SVGID_6_)" d="M672.522,3143.849c-3.528,1.039-7.445-0.409-9.381-3.739
				c-73.819-126.795,162.545-512.042,172.637-528.385c2.372-3.833,7.407-5.038,11.274-2.664c3.847,2.379,5.035,7.432,2.665,11.274
				c-2.426,3.915-241.333,393.168-172.419,511.538c2.274,3.909,0.949,8.923-2.96,11.196
				C673.759,3143.406,673.146,3143.665,672.522,3143.849z"/>
			
				<linearGradient id="SVGID_7_" gradientUnits="userSpaceOnUse" x1="927.0435" y1="3510.0264" x2="-429.5735" y2="5867.4268" gradientTransform="matrix(0.9977 -0.0682 0.0682 0.9977 -29.8862 -196.0986)">
				<stop  offset="0" style="stop-color:#FEBBBA"/>
				<stop  offset="1" style="stop-color:#FF928E"/>
			</linearGradient>
			<path fill="url(#SVGID_7_)" d="M1258.792,3130.344c-44.286,12.278-85.489,34.302-129.983,45.627
				c-49.409,12.576-98.254,27.354-148.011,38.557c-77.407,17.43-179.249,37.403-247.228-15.797
				c-5.735-4.488-51.831-56.605-55.081-54.728c-123.432,71.311-147.435,237.954-147.435,318.801
				c225.041,123.056,578.961-116.561,674.302-186.586c15.683-11.521,35.101-16.51,54.38-13.867
				c38.983,5.346,106.185,12.529,141.62,4.565c51.841-11.65,139.717,168.016,220.738,105.211
				C1622.095,3372.127,1527.435,3055.862,1258.792,3130.344z"/>
			<g>
				
					<linearGradient id="SVGID_8_" gradientUnits="userSpaceOnUse" x1="1589.3906" y1="1933.6191" x2="1152.2784" y2="2268.0767" gradientTransform="matrix(0.9938 0.1109 -0.1109 0.9938 137.5361 -147.709)">
					<stop  offset="0" style="stop-color:#FEBBBA"/>
					<stop  offset="1" style="stop-color:#FF928E"/>
				</linearGradient>
				<path fill="url(#SVGID_8_)" d="M1503.843,1794.745c0,0,56.519,183.039,51.402,275.229
					c-5.115,92.192,7.996,153.846-100.002,160.479c-107.997,6.634-191.355-56.096-229.524-152.754c0,0-60.067-149.08-36.65-204.778
					C1212.486,1817.225,1503.843,1794.745,1503.843,1794.745z"/>
				
					<linearGradient id="SVGID_9_" gradientUnits="userSpaceOnUse" x1="1282.291" y1="1669.5957" x2="1678.1207" y2="2179.2256" gradientTransform="matrix(0.9938 0.1109 -0.1109 0.9938 137.5361 -147.709)">
					<stop  offset="0" style="stop-color:#09005D"/>
					<stop  offset="1" style="stop-color:#1A0F91"/>
				</linearGradient>
				<path fill="url(#SVGID_9_)" d="M1269.24,2016.119l13.393,1.493c0,0-42.558-119.341,8.146-133.817
					c50.703-14.478,247.131-32.221,296.17-95.748c47.276-61.242,21.115-150.079-29.539-179.772c-3.204-1.88-7.357-0.736-9.446,2.335
					l-5.347,7.863c-3.662,5.384-12.016,3.574-13.122-2.843l0,0c-1.048-6.087-8.854-8.26-12.679-3.412
					c-14.958,18.966-53.001,48.273-147.02,55.001c-133.406,9.545-225.721,52.808-237.921,142.908
					c-0.773,5.709-7.242,8.18-11.798,4.656c-8.995-6.957-24.129-11.439-46.704,3.612c-39.257,26.177-33.304,106.104,38.194,179.278
					c3.398,3.477,2.716,9.312-1.626,11.495c-15.3,7.695-39.023,27.419,12.788,63.016c53,36.414,86.721,36.848,99.667,35.031
					c3.485-0.488,6.107-3.321,6.28-6.835l3.983-80.608c0.206-4.17,3.886-7.302,8.034-6.838L1269.24,2016.119z"/>
				
					<linearGradient id="SVGID_10_" gradientUnits="userSpaceOnUse" x1="1535.1699" y1="1862.7666" x2="1098.059" y2="2197.2231" gradientTransform="matrix(0.9938 0.1109 -0.1109 0.9938 137.5361 -147.709)">
					<stop  offset="0" style="stop-color:#FEBBBA"/>
					<stop  offset="1" style="stop-color:#FF928E"/>
				</linearGradient>
				<path fill="url(#SVGID_10_)" d="M1270.662,2033.235c0,0-16.552-114.741-70.033-89.053
					c-53.482,25.688,12.006,127.833,51.734,136.489L1270.662,2033.235z"/>
			</g>
			
				<linearGradient id="SVGID_11_" gradientUnits="userSpaceOnUse" x1="12690.0664" y1="4023.6309" x2="11995.3564" y2="4214.0327" gradientTransform="matrix(-1.053 -0.0342 -0.0325 0.9995 14429.9648 -336.4561)">
				<stop  offset="0" style="stop-color:#09005D"/>
				<stop  offset="1" style="stop-color:#1A0F91"/>
			</linearGradient>
			<path fill="url(#SVGID_11_)" d="M1095.123,3478.016c0.695,0.023,1.389,0.03,2.09,0.016l908.172-14.053
				c22.449-0.342,40.291-17.899,39.852-39.213c-0.441-21.32-19.07-38.669-41.454-37.962l-908.172,14.051
				c-22.451,0.342-40.291,17.901-39.851,39.213C1056.189,3460.718,1073.624,3477.317,1095.123,3478.016z"/>
		</g>
		<g>
			<g>
				<g>
					<linearGradient id="SVGID_12_" gradientUnits="userSpaceOnUse" x1="1432.7124" y1="1899.4492" x2="1091.1743" y2="2359.2969">
						<stop  offset="0" style="stop-color:#4F52FF"/>
						<stop  offset="1" style="stop-color:#4042E2"/>
					</linearGradient>
					<path fill="url(#SVGID_12_)" d="M1448.624,2148.42c-161.808,13.725-294.19-112.976-295.124-114.879v-28.554
						c0.895,1.817,140.386,142.627,294.191,129.582L1448.624,2148.42z"/>
				</g>
				<linearGradient id="SVGID_13_" gradientUnits="userSpaceOnUse" x1="1566.2461" y1="2020.8652" x2="1363.1108" y2="2286.5032">
					<stop  offset="0" style="stop-color:#4F52FF"/>
					<stop  offset="1" style="stop-color:#4042E2"/>
				</linearGradient>
				<path fill="url(#SVGID_13_)" d="M1514.585,2141.402c0,10.768-7.774,19.496-17.364,19.496h-46.302
					c-9.589,0-17.363-8.729-17.363-19.496l0,0c0-10.769,7.774-19.497,17.363-19.497h46.302
					C1506.812,2121.905,1514.585,2130.634,1514.585,2141.402L1514.585,2141.402z"/>
			</g>
			<g>
				
					<linearGradient id="SVGID_14_" gradientUnits="userSpaceOnUse" x1="1908.5044" y1="1785.3535" x2="394.7904" y2="2035.4448" gradientTransform="matrix(0.9856 -0.1691 0.1691 0.9856 -389.4729 140.4814)">
					<stop  offset="0" style="stop-color:#4F52FF"/>
					<stop  offset="1" style="stop-color:#4042E2"/>
				</linearGradient>
				<path fill="url(#SVGID_14_)" d="M1236.169,1861.303c0,0-36.954-197.165,190.981-198.272c3.157-0.016,3.682-4.538,0.605-5.247
					c-62.44-14.39-243.68-35.696-246.413,200.908C1216.074,1871.198,1236.169,1861.303,1236.169,1861.303z"/>
				<linearGradient id="SVGID_15_" gradientUnits="userSpaceOnUse" x1="1358.8135" y1="1730.0254" x2="1191.3938" y2="1993.432">
					<stop  offset="0" style="stop-color:#4F52FF"/>
					<stop  offset="1" style="stop-color:#4042E2"/>
				</linearGradient>
				<path fill="url(#SVGID_15_)" d="M1194.399,1837.25c-88.949,18.052-78.015,130.54-78.015,130.54
					c-6.409,81.633,17.416,122.1,47.948,141.383c20.857,13.175,47.116,14.394,69.139,3.281
					c22.021-11.114,36.606-32.962,38.423-57.563c1.643-22.215,3.523-43.333,5.173-50.834
					C1281.06,1985.885,1283.351,1819.195,1194.399,1837.25z"/>
			</g>
			<linearGradient id="SVGID_16_" gradientUnits="userSpaceOnUse" x1="1201.6694" y1="1989.877" x2="902.547" y2="1389.4003">
				<stop  offset="0" style="stop-color:#4F52FF"/>
				<stop  offset="1" style="stop-color:#4042E2"/>
			</linearGradient>
			<path fill="url(#SVGID_16_)" d="M1202.57,1865.694c-18.465-3.211-36.676,6.603-44.104,23.811
				c-53.161,123.152,12.111,203.264,44.154,204.935c33.774,1.76,33.088-160.724,25.919-202.378
				C1225.533,1874.605,1214.442,1867.758,1202.57,1865.694z"/>
		</g>
	</g>
	<g>
		<linearGradient id="SVGID_17_" gradientUnits="userSpaceOnUse" x1="1726.8784" y1="3928.3027" x2="1765.6146" y2="3076.1179">
			<stop  offset="0" style="stop-color:#09005D"/>
			<stop  offset="1" style="stop-color:#1A0F91"/>
		</linearGradient>
		<path fill="url(#SVGID_17_)" d="M366.526,3509.067c-1.516-11.216,0.548-22.817,5.625-31.629
			c5.077-8.813,12.638-13.918,20.617-13.918h2702.69c10.492,0,20.26,7.657,25.913,20.316c5.653,12.658,6.411,28.568,2.011,42.208
			l-29.287,90.771c-6.707,20.787-21.24,34.096-37.229,34.096H411.314c-14.875,0-27.661-15.104-30.485-36.018L366.526,3509.067z"/>
		<path fill="#91B3FA" d="M3056.866,3654.261H411.313c-16.54,0-30.757-16.369-33.805-38.919l-14.303-105.827
			c-1.615-11.979,0.589-24.279,6.046-33.746c5.706-9.911,14.276-15.598,23.517-15.598h2702.688c11.906,0,22.736,8.335,28.972,22.298
			c6.011,13.459,6.812,30.133,2.142,44.602l-29.292,90.773C3090.144,3639.968,3074.278,3654.261,3056.866,3654.261z
			 M369.844,3508.618l14.303,105.828c2.589,19.19,14.018,33.117,27.167,33.117h2645.552c14.453,0,27.814-12.471,34.04-31.773
			l29.292-90.773c4.176-12.942,3.473-27.826-1.883-39.814c-5.128-11.48-13.672-18.334-22.857-18.334H392.77
			c-6.779,0-13.237,4.463-17.716,12.242C370.318,3487.324,368.422,3498.079,369.844,3508.618L369.844,3508.618z"/>
	</g>
	<g>
		<linearGradient id="SVGID_18_" gradientUnits="userSpaceOnUse" x1="2276.5991" y1="2477.21" x2="2568.1433" y2="3222.728">
			<stop  offset="0" style="stop-color:#09005D"/>
			<stop  offset="1" style="stop-color:#1A0F91"/>
		</linearGradient>
		<path fill="url(#SVGID_18_)" d="M1795.686,2432.125c-15.266,124.741-83.942,631.562-103.6,776.372
			c-2.765,20.366,13.41,38.275,33.955,37.688l1165.019-33.338c15.244-0.437,28.244-11.175,31.551-26.063l181.229-816.161
			c4.791-21.577-12.385-41.748-34.449-40.456l-1242.604,72.782C1810.719,2403.889,1797.641,2416.15,1795.686,2432.125z"/>
		<g>
			<linearGradient id="SVGID_19_" gradientUnits="userSpaceOnUse" x1="2241.4927" y1="2773.5957" x2="2408.0898" y2="3798.1628">
				<stop  offset="0" style="stop-color:#09005D"/>
				<stop  offset="1" style="stop-color:#1A0F91"/>
			</linearGradient>
			<path fill="url(#SVGID_19_)" d="M2263.98,2943.944l-172.183,488.706l400.369,8.486l33.336-494.259
				c1.564-23.193-17.672-42.45-40.867-40.91l-186.973,12.414C2282.333,2919.4,2269.084,2929.455,2263.98,2943.944z"/>
			<path fill="#91B3FA" d="M2495.291,3444.551l-3.198-0.065l-404.992-8.583l173.721-493.071c5.556-15.771,19.93-26.68,36.62-27.791
				l186.971-12.412c12.05-0.775,23.795,3.629,32.31,12.15c8.516,8.524,12.934,20.307,12.122,32.326L2495.291,3444.551z
				 M2096.492,3429.401l392.547,8.322l33.12-491.07c0.684-10.091-3.027-19.985-10.176-27.14
				c-7.147-7.158-17.025-10.863-27.127-10.202l-186.971,12.412c-14.015,0.932-26.084,10.091-30.746,23.331L2096.492,3429.401z"/>
		</g>
		<g>
			<linearGradient id="SVGID_20_" gradientUnits="userSpaceOnUse" x1="2166.4917" y1="3369.5791" x2="2657.9517" y2="3691.6655">
				<stop  offset="0" style="stop-color:#09005D"/>
				<stop  offset="1" style="stop-color:#1A0F91"/>
			</linearGradient>
			<path fill="url(#SVGID_20_)" d="M1929.483,3439.613L1929.483,3439.613c-4.412,13.447,5.604,27.277,19.756,27.277h627
				c11.484,0,20.795-9.31,20.795-20.794v-26.892c0-11.834-9.863-21.282-21.686-20.775l-626.999,26.892
				C1939.698,3425.692,1932.182,3431.387,1929.483,3439.613z"/>
			<path fill="#91B3FA" d="M2576.241,3470.239h-627c-7.832,0-14.961-3.64-19.555-9.983c-4.594-6.343-5.826-14.246-3.385-21.686
				c3.113-9.496,11.916-16.163,21.902-16.595l627-26.892c6.645-0.295,12.943,2.093,17.736,6.687
				c4.801,4.598,7.442,10.791,7.442,17.436v26.892C2600.382,3459.409,2589.552,3470.239,2576.241,3470.239z M2576.264,3401.758
				c-0.26,0-0.514,0.006-0.772,0.016l-627,26.893c-7.217,0.311-13.577,5.13-15.827,11.99l0,0
				c-1.766,5.379-0.873,11.089,2.447,15.673c3.318,4.584,8.469,7.214,14.129,7.214h627c9.62,0,17.445-7.825,17.445-17.445v-26.892
				c0-4.804-1.91-9.277-5.379-12.6C2585.027,3403.465,2580.776,3401.758,2576.264,3401.758z"/>
		</g>
		<path fill="#91B3FA" d="M1778.086,2947.72l-8.266-1.041l57.244-451.421c3.546-28.007,26.566-49.556,54.736-51.257l1073.807-64.848
			l0.504,8.313l-1073.805,64.85c-24.178,1.456-43.937,19.954-46.979,43.983L1778.086,2947.72z"/>
		<polygon fill="#91B3FA" points="1749.391,3174.032 1741.125,3172.99 1753.519,3075.262 1761.784,3076.303 		"/>
	</g>
</g>
</svg>
