<?xml version="1.0" encoding="utf-8"?>
<!-- Generator: Adobe Illustrator 15.1.0, SVG Export Plug-In . SVG Version: 6.00 Build 0)  -->
<!DOCTYPE svg PUBLIC "-//W3C//DTD SVG 1.1//EN" "http://www.w3.org/Graphics/SVG/1.1/DTD/svg11.dtd">
<svg version="1.1" id="Layer_1" xmlns="http://www.w3.org/2000/svg" xmlns:xlink="http://www.w3.org/1999/xlink" x="0px" y="0px"
	 width="150px" height="150px" viewBox="0 0 150 150" enable-background="new 0 0 150 150" xml:space="preserve">
<g>
	<path fill="#fc6600" d="M75,147.5c-39.977,0-72.5-32.523-72.5-72.5S35.023,2.5,75,2.5s72.5,32.523,72.5,72.5
		S114.977,147.5,75,147.5z"/>
	<path fill="#FFFFFF" d="M75,5c38.598,0,70,31.402,70,70c0,38.598-31.402,70-70,70c-38.598,0-70-31.402-70-70
		C5,36.402,36.402,5,75,5 M75,0C33.579,0,0,33.579,0,75s33.579,75,75,75s75-33.579,75-75S116.421,0,75,0L75,0z"/>
</g>
<text transform="matrix(1 0 0 1 -147.3652 141.1777)" fill="#F1F2F2" font-family="'BaskOldFace'" font-size="72">F</text>
<text transform="matrix(1 0 0 1 -114 141.1777)" fill="#F1F2F2" font-family="'BaskOldFace'" font-size="72">L</text>
<text transform="matrix(1 0 0 1 -119 192.9717)" fill="#F1F2F2" font-family="'BaskOldFace'" font-size="72">T</text>
<text transform="matrix(1 0 0 1 -68.5 192.9717)" fill="#F1F2F2" font-family="'BaskOldFace'" font-size="72">P</text>
<g>
	<g>
		<path fill="#F1F2F2" d="M-7.091,184.168c-2.948-1.471-7.093-6.717-3.992-9.724c2.355-2.284,6.073-3.496,8.919-5.079
			c4.229-2.353,9.663-6.768,5.072-11.697c-5.25-5.637-7.351,2.826-8.133,6.907c-2.237,11.67,3.382,24.246,6.803,35.142
			c2.307,7.347,4.388,15.777,0.373,22.933c-3.532,6.293-11.318,7.316-17.807,6.366c-9.098-1.333-23.367-8.887-19.191-20.183
			c0.14-0.377-1.722-0.168-1.907,0.334c-3.918,10.6,8.104,17.775,16.693,20.032c9.057,2.38,20.861,0.734,25.048-8.744
			c3.4-7.696,0.162-16.783-2.216-24.222c-3.849-12.037-8.558-24.698-4.729-37.363c1.217-4.024,4.218,0.443,4.817,2.36
			c0.56,1.791-0.514,3.47-1.647,4.725c-2.569,2.845-6.652,4.386-9.971,6.144c-1.75,0.927-3.818,1.934-4.865,3.694
			c-1.797,3.021,2.453,7.813,4.914,9.039C-8.397,185.088-6.843,184.291-7.091,184.168L-7.091,184.168z"/>
	</g>
</g>
<g>
	<path fill="#F1F2F2" d="M60.318,58.389c-1.014-0.173-1.951-0.704-2.737-1.284c-0.792-0.601-1.491-1.303-2.09-2.097
		c-0.604-0.791-1.107-1.676-1.47-2.673c-0.363-0.992-0.562-2.143-0.35-3.401c0.14-0.627,0.231-1.209,0.946-2.025
		c0.551-0.587,1.111-0.886,1.629-1.138c1.041-0.477,1.991-0.697,2.921-0.898c0.928-0.192,1.831-0.329,2.7-0.462
		c0.864-0.139,1.716-0.251,2.271-0.46c3.237-1.06,6.372-2.35,8.591-4.329c2.206-1.923,3.253-4.652,2.741-7.245
		c-0.478-2.617-2.368-5.117-4.714-6.431c-0.585-0.33-1.196-0.583-1.812-0.761c-0.152-0.052-0.309-0.076-0.462-0.117
		c-0.085-0.017-0.437-0.094-0.51-0.098c-0.284-0.044-0.614-0.079-0.867-0.078c-0.538-0.01-0.84,0.12-0.861,0.174
		c-0.018,0.043-0.082,0.073-0.22,0.479c-0.271,0.801-0.288,2.381-0.126,3.925c0.149,1.57,0.456,3.281,0.708,5.011
		c0.272,1.776,0.541,3.388,0.872,5.087c0.323,1.684,0.682,3.363,1.067,5.039c0.747,3.355,1.612,6.692,2.58,10.005
		c0.962,3.313,1.979,6.619,3.102,9.893c2.251,6.546,4.743,13.025,7.397,19.452c1.31,3.222,2.723,6.401,4.13,9.588
		c0.703,1.604,1.406,3.171,2.153,4.702c0.751,1.546,1.549,3.075,2.339,4.619c1.603,3.074,3.331,6.117,5.021,9.211l1.265,2.271
		c0.427,0.747,0.893,1.521,1.333,2.329c0.441,0.81,0.863,1.659,1.176,2.582c0.313,0.917,0.536,1.92,0.473,2.95v0.004l0.189,2.462
		l-1.614-1.938c-2.622-3.146-4.86-6.56-7.385-9.61c-2.506-3.073-5.494-5.619-8.883-7.591c-3.386-1.977-7.1-3.423-10.897-4.606
		c-1.902-0.59-3.829-1.114-5.771-1.587c-0.979-0.24-1.935-0.462-2.918-0.667c-0.944-0.195-1.929-0.359-2.898-0.512
		c-7.802-1.177-15.843-0.616-23.562,1.167c-0.966,0.226-1.928,0.467-2.884,0.729l-2.908,0.809c-1.922,0.545-3.805,1.156-5.642,1.827
		c-1.827,0.691-3.618,1.434-5.257,2.378c-1.644,0.935-3.129,2.063-4.219,3.552l-0.001,0.002l-0.695-1.171
		c2.825-0.183,5.524-1.411,8.102-2.787c2.584-1.418,5.057-3.072,7.711-4.683c5.203-3.135,10.52-6.133,15.862-9.01
		c5.347-2.881,10.714-5.706,16.099-8.467c5.383-2.785,10.676-5.602,16.149-8.341l8.161-4.056l8.197-3.921
		c5.444-2.636,10.916-5.177,16.313-7.843c2.69-1.349,5.406-2.645,8.077-4.023l4-2.08l1.984-1.036
		c0.559-0.291,1.158-0.656,1.701-1.034c2.162-1.488,4.127-3.736,3.56-5.364c-0.252-0.882-1.214-1.85-2.383-2.564
		c-1.173-0.73-2.517-1.347-3.908-1.854l0.402-1.546c1.533,0.264,3.09,0.587,4.615,1.24c0.763,0.325,1.524,0.723,2.251,1.272
		c0.723,0.543,1.428,1.266,1.888,2.231c0.469,0.954,0.628,2.111,0.479,3.138c-0.14,1.036-0.507,1.954-0.947,2.764
		c-0.902,1.618-2.102,2.862-3.373,3.976c-0.648,0.556-1.298,1.054-2.036,1.543l-1.95,1.235l-3.929,2.357
		c-2.635,1.543-5.27,3.087-7.959,4.521c-5.361,2.904-10.769,5.695-16.221,8.349l-8.153,4.006l-8.152,3.95l-8.107,4.048l-8.197,3.967
		c-5.456,2.646-10.947,5.193-16.409,7.781l-8.184,3.891l-8.144,3.966c-2.658,1.297-5.354,2.822-8.246,4.003
		c-2.867,1.184-5.998,2.18-9.276,1.968l-1.396-0.09l0.701-1.081l0.002-0.003c0.827-2.105,2.47-3.749,4.205-5.003
		c1.757-1.263,3.669-2.207,5.613-2.97c1.941-0.778,3.928-1.366,5.897-1.922l2.944-0.799c0.996-0.268,1.999-0.512,3.004-0.74
		c8.041-1.803,16.436-2.347,24.649-1.057c1.029,0.162,2.037,0.352,3.069,0.586c0.993,0.227,2.003,0.48,2.984,0.741
		c1.979,0.521,3.947,1.097,5.898,1.742c3.896,1.297,7.748,2.872,11.319,5.046c3.587,2.144,6.729,5.076,9.246,8.348
		c2.541,3.264,4.638,6.708,7.061,9.894l-1.425,0.524l-0.001-0.003c-0.616-2.972-3.544-5.303-5.587-8.273
		c-2.16-2.797-4.257-5.663-6.266-8.63c-2.013-2.936-3.868-6.119-5.565-9.234c-1.695-3.13-3.273-6.322-4.82-9.533
		c-3.056-6.438-5.781-13.046-8.094-19.815c-2.354-6.754-4.314-13.667-5.79-20.715c-0.364-1.763-0.684-3.537-0.976-5.318
		c-0.294-1.763-0.55-3.632-0.762-5.341c-0.215-1.757-0.442-3.527-0.555-5.468c-0.051-0.968-0.072-1.968,0.001-3.037
		c0.081-1.069,0.229-2.213,0.707-3.488c0.24-0.632,0.579-1.304,1.073-1.944c0.489-0.639,1.15-1.237,1.889-1.648
		c1.507-0.847,3.031-0.942,4.238-0.858c0.625,0.046,1.168,0.135,1.747,0.263c0.358,0.079,0.435,0.104,0.776,0.196
		c0.269,0.083,0.543,0.154,0.804,0.254c1.057,0.372,2.052,0.862,2.968,1.451c3.629,2.372,6.192,6.139,6.785,10.505
		c0.291,2.166-0.063,4.507-0.954,6.463c-0.875,2.006-2.315,3.708-3.913,4.972c-3.24,2.54-6.896,3.69-10.358,4.646
		c-1.129,0.313-2.045,0.35-2.92,0.452c-0.876,0.086-1.719,0.17-2.523,0.292c-0.795,0.12-1.578,0.283-2.152,0.513
		c-0.279,0.109-0.505,0.246-0.562,0.3c0.084-0.186-0.113,0.106-0.152,0.332c-0.273,0.974,0.155,2.54,0.875,3.874
		c0.742,1.342,1.735,2.659,3.02,3.405L60.318,58.389z"/>
</g>
</svg>
